<mxfile host="Electron" agent="Mozilla/5.0 (Windows NT 10.0; Win64; x64) AppleWebKit/537.36 (KHTML, like Gecko) draw.io/24.7.17 Chrome/128.0.6613.36 Electron/32.0.1 Safari/537.36" version="24.7.17">
  <diagram name="第 1 页" id="V7HJft7BI7uu420LYjHC">
    <mxGraphModel dx="1768" dy="704" grid="1" gridSize="10" guides="1" tooltips="1" connect="1" arrows="1" fold="1" page="1" pageScale="1" pageWidth="827" pageHeight="1169" math="0" shadow="0">
      <root>
        <mxCell id="0" />
        <mxCell id="1" parent="0" />
        <mxCell id="v_TsdnqqWNnHg_NhOuro-1" value="start" style="ellipse;whiteSpace=wrap;html=1;aspect=fixed;" parent="1" vertex="1">
          <mxGeometry x="320" y="50" width="80" height="80" as="geometry" />
        </mxCell>
        <mxCell id="v_TsdnqqWNnHg_NhOuro-2" value="" style="endArrow=classic;html=1;rounded=0;exitX=0.5;exitY=1;exitDx=0;exitDy=0;entryX=0.5;entryY=0;entryDx=0;entryDy=0;" parent="1" source="v_TsdnqqWNnHg_NhOuro-1" target="v_TsdnqqWNnHg_NhOuro-3" edge="1">
          <mxGeometry width="50" height="50" relative="1" as="geometry">
            <mxPoint x="350" y="190" as="sourcePoint" />
            <mxPoint x="360" y="170" as="targetPoint" />
            <Array as="points">
              <mxPoint x="360" y="150" />
            </Array>
          </mxGeometry>
        </mxCell>
        <mxCell id="v_TsdnqqWNnHg_NhOuro-3" value="配置GPIO" style="rounded=0;whiteSpace=wrap;html=1;" parent="1" vertex="1">
          <mxGeometry x="300" y="160" width="120" height="60" as="geometry" />
        </mxCell>
        <mxCell id="v_TsdnqqWNnHg_NhOuro-4" value="" style="endArrow=classic;html=1;rounded=0;exitX=0.5;exitY=1;exitDx=0;exitDy=0;" parent="1" source="v_TsdnqqWNnHg_NhOuro-1" edge="1">
          <mxGeometry width="50" height="50" relative="1" as="geometry">
            <mxPoint x="389" y="150" as="sourcePoint" />
            <mxPoint x="480" y="160" as="targetPoint" />
          </mxGeometry>
        </mxCell>
        <mxCell id="v_TsdnqqWNnHg_NhOuro-5" value="配置TIM2" style="rounded=0;whiteSpace=wrap;html=1;" parent="1" vertex="1">
          <mxGeometry x="480" y="160" width="120" height="60" as="geometry" />
        </mxCell>
        <mxCell id="v_TsdnqqWNnHg_NhOuro-6" value="" style="endArrow=classic;html=1;rounded=0;" parent="1" edge="1">
          <mxGeometry width="50" height="50" relative="1" as="geometry">
            <mxPoint x="360" y="130" as="sourcePoint" />
            <mxPoint x="240" y="160" as="targetPoint" />
          </mxGeometry>
        </mxCell>
        <mxCell id="v_TsdnqqWNnHg_NhOuro-7" value="配置EXTI" style="rounded=0;whiteSpace=wrap;html=1;" parent="1" vertex="1">
          <mxGeometry x="120" y="160" width="120" height="60" as="geometry" />
        </mxCell>
        <mxCell id="v_TsdnqqWNnHg_NhOuro-8" value="" style="endArrow=classic;html=1;rounded=0;exitX=0.446;exitY=1.017;exitDx=0;exitDy=0;exitPerimeter=0;" parent="1" source="v_TsdnqqWNnHg_NhOuro-7" target="v_TsdnqqWNnHg_NhOuro-9" edge="1">
          <mxGeometry width="50" height="50" relative="1" as="geometry">
            <mxPoint x="390" y="400" as="sourcePoint" />
            <mxPoint x="174" y="280" as="targetPoint" />
          </mxGeometry>
        </mxCell>
        <mxCell id="v_TsdnqqWNnHg_NhOuro-9" value="配置NVIC" style="rounded=0;whiteSpace=wrap;html=1;" parent="1" vertex="1">
          <mxGeometry x="114" y="270" width="120" height="60" as="geometry" />
        </mxCell>
        <mxCell id="v_TsdnqqWNnHg_NhOuro-10" value="" style="endArrow=none;dashed=1;html=1;dashPattern=1 3;strokeWidth=2;rounded=0;" parent="1" target="v_TsdnqqWNnHg_NhOuro-11" edge="1">
          <mxGeometry width="50" height="50" relative="1" as="geometry">
            <mxPoint x="160" y="160" as="sourcePoint" />
            <mxPoint x="140" y="120" as="targetPoint" />
          </mxGeometry>
        </mxCell>
        <mxCell id="v_TsdnqqWNnHg_NhOuro-11" value="由按键触发，进入中断函数" style="shape=note;whiteSpace=wrap;html=1;backgroundOutline=1;darkOpacity=0.05;fillColor=#ffe6cc;strokeColor=#d79b00;" parent="1" vertex="1">
          <mxGeometry x="80" y="50" width="130" height="60" as="geometry" />
        </mxCell>
        <mxCell id="v_TsdnqqWNnHg_NhOuro-14" value="模式切换" style="rounded=0;whiteSpace=wrap;html=1;" parent="1" vertex="1">
          <mxGeometry x="20" y="380" width="130" height="30" as="geometry" />
        </mxCell>
        <mxCell id="v_TsdnqqWNnHg_NhOuro-15" value="" style="endArrow=none;dashed=1;html=1;rounded=0;entryX=0;entryY=0.5;entryDx=0;entryDy=0;entryPerimeter=0;" parent="1" target="v_TsdnqqWNnHg_NhOuro-11" edge="1">
          <mxGeometry width="50" height="50" relative="1" as="geometry">
            <mxPoint x="30" y="380" as="sourcePoint" />
            <mxPoint x="80" y="330" as="targetPoint" />
          </mxGeometry>
        </mxCell>
        <mxCell id="v_TsdnqqWNnHg_NhOuro-16" value="" style="endArrow=classic;html=1;rounded=0;exitX=0.5;exitY=1;exitDx=0;exitDy=0;" parent="1" source="v_TsdnqqWNnHg_NhOuro-14" edge="1">
          <mxGeometry width="50" height="50" relative="1" as="geometry">
            <mxPoint x="80" y="490" as="sourcePoint" />
            <mxPoint x="85" y="480" as="targetPoint" />
          </mxGeometry>
        </mxCell>
        <mxCell id="v_TsdnqqWNnHg_NhOuro-23" value="" style="edgeStyle=orthogonalEdgeStyle;rounded=0;orthogonalLoop=1;jettySize=auto;html=1;fontFamily=Helvetica;fontSize=12;fontColor=default;" parent="1" source="v_TsdnqqWNnHg_NhOuro-17" target="v_TsdnqqWNnHg_NhOuro-22" edge="1">
          <mxGeometry relative="1" as="geometry" />
        </mxCell>
        <mxCell id="v_TsdnqqWNnHg_NhOuro-28" value="" style="edgeStyle=orthogonalEdgeStyle;rounded=0;orthogonalLoop=1;jettySize=auto;html=1;fontFamily=Helvetica;fontSize=12;fontColor=default;" parent="1" source="v_TsdnqqWNnHg_NhOuro-17" target="v_TsdnqqWNnHg_NhOuro-27" edge="1">
          <mxGeometry relative="1" as="geometry" />
        </mxCell>
        <mxCell id="v_TsdnqqWNnHg_NhOuro-17" value="EXTI_Get_ITStatus==SET" style="rounded=0;whiteSpace=wrap;html=1;" parent="1" vertex="1">
          <mxGeometry x="-40" y="480" width="250" height="30" as="geometry" />
        </mxCell>
        <mxCell id="v_TsdnqqWNnHg_NhOuro-25" value="" style="edgeStyle=orthogonalEdgeStyle;rounded=0;orthogonalLoop=1;jettySize=auto;html=1;fontFamily=Helvetica;fontSize=12;fontColor=default;" parent="1" source="v_TsdnqqWNnHg_NhOuro-22" target="v_TsdnqqWNnHg_NhOuro-24" edge="1">
          <mxGeometry relative="1" as="geometry" />
        </mxCell>
        <mxCell id="v_TsdnqqWNnHg_NhOuro-22" value="if mode==blink" style="shape=parallelogram;perimeter=parallelogramPerimeter;whiteSpace=wrap;html=1;fixedSize=1;rounded=0;" parent="1" vertex="1">
          <mxGeometry x="-60" y="575" width="120" height="60" as="geometry" />
        </mxCell>
        <mxCell id="v_TsdnqqWNnHg_NhOuro-24" value="mode=breath" style="whiteSpace=wrap;html=1;rounded=0;" parent="1" vertex="1">
          <mxGeometry x="-60" y="715" width="120" height="25" as="geometry" />
        </mxCell>
        <mxCell id="v_TsdnqqWNnHg_NhOuro-30" value="" style="edgeStyle=orthogonalEdgeStyle;rounded=0;orthogonalLoop=1;jettySize=auto;html=1;fontFamily=Helvetica;fontSize=12;fontColor=default;" parent="1" source="v_TsdnqqWNnHg_NhOuro-27" target="v_TsdnqqWNnHg_NhOuro-29" edge="1">
          <mxGeometry relative="1" as="geometry" />
        </mxCell>
        <mxCell id="v_TsdnqqWNnHg_NhOuro-27" value="if mode==breath" style="shape=parallelogram;perimeter=parallelogramPerimeter;whiteSpace=wrap;html=1;fixedSize=1;rounded=0;" parent="1" vertex="1">
          <mxGeometry x="114" y="575" width="120" height="60" as="geometry" />
        </mxCell>
        <mxCell id="v_TsdnqqWNnHg_NhOuro-29" value="mode=blink" style="whiteSpace=wrap;html=1;rounded=0;" parent="1" vertex="1">
          <mxGeometry x="116" y="715" width="116" height="25" as="geometry" />
        </mxCell>
        <mxCell id="v_TsdnqqWNnHg_NhOuro-31" value="" style="endArrow=none;dashed=1;html=1;rounded=0;fontFamily=Helvetica;fontSize=12;fontColor=default;exitX=0;exitY=0.5;exitDx=0;exitDy=0;exitPerimeter=0;" parent="1" source="v_TsdnqqWNnHg_NhOuro-11" target="v_TsdnqqWNnHg_NhOuro-32" edge="1">
          <mxGeometry width="50" height="50" relative="1" as="geometry">
            <mxPoint x="320" y="430" as="sourcePoint" />
            <mxPoint x="260" y="380" as="targetPoint" />
          </mxGeometry>
        </mxCell>
        <mxCell id="v_TsdnqqWNnHg_NhOuro-34" value="" style="edgeStyle=orthogonalEdgeStyle;rounded=0;orthogonalLoop=1;jettySize=auto;html=1;fontFamily=Helvetica;fontSize=12;fontColor=default;" parent="1" source="v_TsdnqqWNnHg_NhOuro-32" target="v_TsdnqqWNnHg_NhOuro-33" edge="1">
          <mxGeometry relative="1" as="geometry" />
        </mxCell>
        <mxCell id="v_TsdnqqWNnHg_NhOuro-32" value="开关" style="rounded=0;whiteSpace=wrap;html=1;strokeColor=default;align=center;verticalAlign=middle;fontFamily=Helvetica;fontSize=12;fontColor=default;fillColor=default;" parent="1" vertex="1">
          <mxGeometry x="234" y="380" width="126" height="25" as="geometry" />
        </mxCell>
        <mxCell id="v_TsdnqqWNnHg_NhOuro-39" value="" style="edgeStyle=orthogonalEdgeStyle;rounded=0;orthogonalLoop=1;jettySize=auto;html=1;fontFamily=Helvetica;fontSize=12;fontColor=default;" parent="1" source="v_TsdnqqWNnHg_NhOuro-33" target="v_TsdnqqWNnHg_NhOuro-38" edge="1">
          <mxGeometry relative="1" as="geometry" />
        </mxCell>
        <mxCell id="v_TsdnqqWNnHg_NhOuro-33" value="EXTI_GetITStatus==SET" style="whiteSpace=wrap;html=1;rounded=0;" parent="1" vertex="1">
          <mxGeometry x="255" y="480" width="210" height="30" as="geometry" />
        </mxCell>
        <mxCell id="v_TsdnqqWNnHg_NhOuro-38" value="led_on=!led_on" style="rounded=0;whiteSpace=wrap;html=1;" parent="1" vertex="1">
          <mxGeometry x="300" y="575" width="120" height="35" as="geometry" />
        </mxCell>
        <mxCell id="v_TsdnqqWNnHg_NhOuro-42" value="" style="edgeStyle=orthogonalEdgeStyle;rounded=0;orthogonalLoop=1;jettySize=auto;html=1;fontFamily=Helvetica;fontSize=12;fontColor=default;" parent="1" source="v_TsdnqqWNnHg_NhOuro-40" target="v_TsdnqqWNnHg_NhOuro-41" edge="1">
          <mxGeometry relative="1" as="geometry" />
        </mxCell>
        <mxCell id="v_TsdnqqWNnHg_NhOuro-40" value="Breathing_Light" style="rounded=0;whiteSpace=wrap;html=1;strokeColor=default;align=center;verticalAlign=middle;fontFamily=Helvetica;fontSize=12;fontColor=default;fillColor=default;" parent="1" vertex="1">
          <mxGeometry x="570" y="310" width="140" height="40" as="geometry" />
        </mxCell>
        <mxCell id="v_TsdnqqWNnHg_NhOuro-44" value="" style="edgeStyle=orthogonalEdgeStyle;rounded=0;orthogonalLoop=1;jettySize=auto;html=1;fontFamily=Helvetica;fontSize=12;fontColor=default;" parent="1" source="v_TsdnqqWNnHg_NhOuro-41" target="v_TsdnqqWNnHg_NhOuro-43" edge="1">
          <mxGeometry relative="1" as="geometry" />
        </mxCell>
        <mxCell id="v_TsdnqqWNnHg_NhOuro-41" value="if led_on==1" style="shape=parallelogram;perimeter=parallelogramPerimeter;whiteSpace=wrap;html=1;fixedSize=1;rounded=0;" parent="1" vertex="1">
          <mxGeometry x="580" y="420" width="120" height="50" as="geometry" />
        </mxCell>
        <mxCell id="v_TsdnqqWNnHg_NhOuro-43" value="呼吸灯功能" style="rounded=0;whiteSpace=wrap;html=1;" parent="1" vertex="1">
          <mxGeometry x="580" y="545" width="120" height="60" as="geometry" />
        </mxCell>
      </root>
    </mxGraphModel>
  </diagram>
</mxfile>
